<svg xmlns="http://www.w3.org/2000/svg" width="120" height="120" viewBox="0 0 120 120"><g id="Layer_2" data-name="Layer 2"><g id="Layer_1-2" data-name="Layer 1"><polygon points="60 25.2 48.95 15.64 33.88 13.22 20.16 19.21 11.85 31.65 10.35 44.02 14.79 55.99 20.84 62.85 25.4 60 32.54 62.85 34.61 71.46 41.72 74.55 43.7 81.95 51.1 83.18 55.13 90.34 63.07 90.34 67.91 93.78 75.58 90.8 77.19 82.62 85.13 81.54 87.68 73.3 96.19 70.65 98.04 62.58 73.16 37.85 67.1 40.93 60.78 39.58 54.19 35.82 52.42 32.05 60 25.2" fill="#dacda5"/><path d="M102.88,20.22a26.81,26.81,0,0,0-11.3-7,28.6,28.6,0,0,0-8.79-1.36,28.94,28.94,0,0,0-9.52,1.58,28.46,28.46,0,0,0-10.22,6.16l-1.78,1.67L60,22.46l-1.27-1.21L57,19.61a28.83,28.83,0,0,0-18.68-7.74l-1.11,0c-1.16,0-2.33.05-2.92.11A28.89,28.89,0,0,0,9.19,34.89,35.69,35.69,0,0,0,9.19,46a29.8,29.8,0,0,0,7,13.86l1.61,1.8,1.1,1.22-1.09,1.23L17,65a8.93,8.93,0,0,0-.11,10.83,8.8,8.8,0,0,0,5.46,3.43c1.91.43,2,2.06,2,2.93a9,9,0,0,0,8,8.47l1,.15,1.31.2L35,92.31l.22,1.28a9.07,9.07,0,0,0,6,6.63,11.35,11.35,0,0,0,3,.34c.56,0,1.1,0,1.61-.08a1.52,1.52,0,0,1,.29,0c1.62,0,2.19,1.37,2.57,2.29a9,9,0,0,0,8.19,5.4,8.15,8.15,0,0,0,1.64-.17c2.19-.47,2.82-.8,5.9-3.88s3.66-4.1,4-6.21l.24-1.52L68.92,95l1.38-.17,1.2-.14a9.14,9.14,0,0,0,4.57-2.44,9.29,9.29,0,0,0,2.54-4.8l.2-1.29L79,84.82l1.33-.21,1.43-.23a9.1,9.1,0,0,0,5.67-3.69A9.34,9.34,0,0,0,88.91,77c0-1.32.54-2.91,3.08-2.91a10.75,10.75,0,0,0,2.92-1.08,9.82,9.82,0,0,0,2.92-2.75,10.59,10.59,0,0,0,1.47-4.21c0-1.73.38-2.11,3.3-5.1a28.31,28.31,0,0,0,8.29-15.4,37,37,0,0,0,0-10.29A27.72,27.72,0,0,0,102.88,20.22Zm-79,56a5.63,5.63,0,0,1-5.08-8.12c.7-1.45,4.56-5.41,6.18-5.88a6.5,6.5,0,0,1,1.8-.27,5.45,5.45,0,0,1,2.05.42,5.79,5.79,0,0,1,3.13,3c1.5,3.26-.29,5.47-2.42,7.64S26.07,76.17,23.91,76.17Zm10.9,11.14a6.48,6.48,0,0,1-1.72.26A5.25,5.25,0,0,1,30.87,87a5.58,5.58,0,0,1-3.19-6.57c.33-1.39.95-2.14,2.39-3.65,2.33-2.43,3.74-3.52,6-3.52a6.23,6.23,0,0,1,2.56.51,7.23,7.23,0,0,1,2.66,2.74,6.34,6.34,0,0,1,0,4.86C40.49,83,36.42,86.86,34.81,87.31ZM49,94.71c-1.86,1.81-3.21,2.79-5,2.79a5.68,5.68,0,0,1-1.51-.22,5.41,5.41,0,0,1-4.22-5.5c0-2.21.9-3.37,2.8-5.31s3.61-3.29,5.69-3.29a6.12,6.12,0,0,1,2.61.64,5.88,5.88,0,0,1,3.05,6C52,91.52,51.19,92.58,49,94.71Zm16.11,3.84v0c-.54,1.39-4.55,5.31-5.84,5.9a5.65,5.65,0,0,1-2.36.53,5.73,5.73,0,0,1-5.2-3.44c-1.47-3.2.25-5.38,2.31-7.5,2.19-2.27,3.52-3.29,5.65-3.29l.55,0a4.62,4.62,0,0,1,3,1.09,6.67,6.67,0,0,1,1.65,2A6.74,6.74,0,0,1,65.07,98.55ZM95.16,68.64a5.69,5.69,0,0,1-4.67,2.46A6,6,0,0,1,89,70.92c-1.34-.35-2.08-1.06-9.65-8.61-3.15-3.14-5.54-5.47-6.84-6.71-.67.64-1.52,1.49-2.16,2.16,1.24,1.3,3.57,3.69,6.71,6.84,7.55,7.57,8.26,8.31,8.61,9.66a5.54,5.54,0,0,1-2.46,6.22,5.93,5.93,0,0,1-3.15.9,5.67,5.67,0,0,1-1.93-.33h-.08c-.32-.14-.94-.38-9.14-8.58L62.3,65.82,61.17,67,60,68.09l6.63,6.65c8.19,8.2,8.44,8.81,8.57,9.14v.05a5.78,5.78,0,0,1-.48,4.94,5.65,5.65,0,0,1-4,2.78,5.27,5.27,0,0,1-.87.07,6.63,6.63,0,0,1-4.24-1.87,8.66,8.66,0,0,0-5.84-2.2l-.88,0c-.54,0-.93,0-1.24,0-2.19,0-2.59-1.22-2.65-1.83a11.7,11.7,0,0,0-1.74-2.83,8.92,8.92,0,0,0-5.65-2.94H45.23L45,78.59l-.23-1.31a8.93,8.93,0,0,0-5.07-6.4,6.15,6.15,0,0,0-1.32-.46h-.07a2.72,2.72,0,0,1-2.37-1.61l0-.14,0-.15s-.16-1-.3-2.06a9,9,0,0,0-8.85-7.69,7.65,7.65,0,0,0-3.24.7l-1.11.5-1.2.55-.91-1L18.8,58a25.82,25.82,0,0,1-2.36-32.31A25.57,25.57,0,0,1,37.17,15a24,24,0,0,1,3.79.29,24.83,24.83,0,0,1,9.6,3.37c1.5.9,5.18,3.73,5.91,4.9,1,1.64.08,2.54-4.26,6.88l-2.9,2.89,2.27,2.23c4,4,5,4.81,6.83,5.72a14,14,0,0,0,12,0l1.4-.69L73,39.93l.94.93L84.57,51.48C95.42,62.33,95.68,63,95.81,63.3A5.72,5.72,0,0,1,95.16,68.64ZM106,50.75a33.66,33.66,0,0,1-4.93,7.37l-1.28,1.36-1.3,1.39-1.35-1.35L84.43,46.8,73,35.36l-.46.44c-2.62,2.51-5.26,3.73-8.08,3.73a10.86,10.86,0,0,1-4.49-1,14.19,14.19,0,0,1-3.22-2.4l-1.62-1.56-1.36-1.31,1.33-1.33,4.36-4.39c6.56-6.58,8.82-8.4,12.76-10.26a24.52,24.52,0,0,1,10.47-2.41,25,25,0,0,1,4.61.44A26.77,26.77,0,0,1,107.4,33.8,24.63,24.63,0,0,1,106,50.75Z" fill="#003f3b"/><rect width="120" height="120" fill="none"/></g></g></svg>