<svg xmlns="http://www.w3.org/2000/svg" width="120" height="120" viewBox="0 0 120 120"><g id="Layer_2" data-name="Layer 2"><g id="Layer_1-2" data-name="Layer 1"><circle cx="59.96" cy="19.59" r="7.22" fill="#dacda5"/><polygon points="50.42 34.6 69 34.6 76.46 40.46 78.25 58.38 75.77 66.26 69 65.47 69 103.89 65.63 107.72 59.21 106.14 54.93 107.72 50.42 104.79 51.13 64.91 45.64 66.26 41.86 61.87 42.93 40.69 50.42 34.6" fill="#dacda5"/><path d="M65.22,27.06a8.67,8.67,0,0,0,3-10.74A9.08,9.08,0,0,0,60,10.59a9.41,9.41,0,0,0-1.72.16A8.63,8.63,0,0,0,55,12.1a8.78,8.78,0,0,0-3.14,10.81,8.68,8.68,0,0,0,9.73,5.61A9.06,9.06,0,0,0,65.22,27.06Zm-5.33-1.6a5.12,5.12,0,0,1-3.79-1.63,6.52,6.52,0,0,1-1.47-6.18,5.41,5.41,0,0,1,4.17-3.76c3.71-.85,6.09,1.66,6.74,4.35a5.63,5.63,0,0,1-4.13,7A6.8,6.8,0,0,1,59.89,25.46Z" fill="#003f3b"/><path d="M41.25,20.57a6.09,6.09,0,0,0-4.89-2.31,7.37,7.37,0,0,0-1.23.1c-4.52.71-6.05,4.53-5.56,7.77s3.14,6.58,7.74,5.92a6.18,6.18,0,0,0,5.12-3.84A8,8,0,0,0,41.25,20.57ZM36.5,29c-4.77.47-5.43-7-.58-7.46S41.26,28.48,36.5,29Z" fill="#003f3b"/><path d="M89,20.56a6.06,6.06,0,0,0-4.85-2.3,7.11,7.11,0,0,0-1.2.1h0c-4.55.71-6.1,4.53-5.61,7.77s3.15,6.58,7.8,5.92a6.08,6.08,0,0,0,5-3.8A8,8,0,0,0,89,20.56Zm-4.68,8.37c-4.76.59-5.52-6.77-.78-7.44S89.07,28.34,84.28,28.93Z" fill="#003f3b"/><path d="M99.93,54.89c0-.76-.05-1.47-.05-2.11s0-1.41,0-2.13c.07-2.65.15-5.39-.8-7.79C96.9,37.18,89.79,36.17,84.37,37a1.61,1.61,0,0,0-1.29,1.19,1.41,1.41,0,0,0,.45,1.5c.67.56,2,.48,3.09.42.35,0,.68,0,1,0,2.89,0,5.67.23,7.77,3s1.8,7.56,1.54,11.42c-.07,1.16-.14,2.26-.14,3.18,0,.09,0,.23,0,.39.06,1.69,0,3.55-.92,4.19a1.42,1.42,0,0,1-1.47,0C93.1,61.67,93.18,60,93.23,59c0-.19,0-.37,0-.52,0-1,0-2,.1-3.12a29.43,29.43,0,0,0-.14-6.53,1.49,1.49,0,0,0-1.47-1.22,1.44,1.44,0,0,0-1.54,1.08c-.58,2.09-.39,4.78-.22,7.39.08,1.2.16,2.33.16,3.37V91.87c0,1.1,0,2.61-1.31,3.33a2,2,0,0,1-2,.1c-1.3-.8-1.42-3.33-1.34-5.94,0-.2,0-.37,0-.5V71.7c0-.24,0-.51,0-.79,0-1.12.1-2.66-.53-3.31a1.4,1.4,0,0,0-1-.36,1.33,1.33,0,0,0-1,.38c-.78.83-.66,2.93-.58,4.32,0,.43,0,.81,0,1.13V89.25c0,.29,0,.63,0,1,.1,1.73.25,4.11-1.54,5a1.85,1.85,0,0,1-1.9,0c-1.15-.71-1.3-2.77-1.3-4.7v-.15c0-1.79,0-3.6.07-5.41.07-3.6.14-7.33-.08-10.93a1.71,1.71,0,0,0-1-1.46,1.47,1.47,0,0,0-.58-.12,1.45,1.45,0,0,0-.94.35c-.93.75-.76,3.12-.65,4.69,0,.52.06,1,.06,1.38V91c0,3,0,5.27,2.47,6.89a5.46,5.46,0,0,0,4.58.65,7.81,7.81,0,0,0,.72-.31,4,4,0,0,1,1.58-.51,4.11,4.11,0,0,1,1.59.49,4.59,4.59,0,0,0,.72.31,5.89,5.89,0,0,0,5.14-.93c2.1-1.58,2-4.3,1.94-6.94,0-.48,0-1,0-1.41V65.53l.69.13A4.69,4.69,0,0,0,98,64.94C100.2,63.07,100,58.35,99.93,54.89Z" fill="#003f3b"/><path d="M43.63,72.42c-.75.34-1.27,2-1.27,3.18V91c0,1.75-.15,3.61-1.25,4.28a1.86,1.86,0,0,1-1.94-.06c-1.77-.89-1.64-3.29-1.54-5,0-.34,0-.66,0-.94V73.07c0-.34,0-.75,0-1.21.1-1.42.22-3.38-.51-4.2a1.24,1.24,0,0,0-.94-.41,1.4,1.4,0,0,0-1.12.33c-.68.65-.64,2.26-.61,3.43,0,.25,0,.48,0,.69V89.06c0,.11,0,.26,0,.45.06,2.63-.06,5.17-1.37,5.88a1.92,1.92,0,0,1-2.09-.31c-1.28-.86-1.26-2.33-1.25-3.5V59.41c0-1.06.07-2.19.14-3.39a25.25,25.25,0,0,0-.21-7.38,1.42,1.42,0,0,0-1.5-1.08,1.53,1.53,0,0,0-1.51,1.23,29.43,29.43,0,0,0-.14,6.53c.06,1.09.11,2.12.11,3.12,0,.15,0,.33,0,.52.05,1.08.13,2.71-1.16,3.31a1.4,1.4,0,0,1-1.46,0c-1-.64-1-2.5-.93-4.19,0-.16,0-.3,0-.39v-8.8c0-1.91,0-3.88,1.21-5.58,2.08-2.93,5.07-3.18,8-3.18.29,0,.62,0,1,0,1.08.06,2.41.14,3.06-.41a1.47,1.47,0,0,0,.47-1.55A1.59,1.59,0,0,0,35.63,37c-5.66-.9-13,.29-15,6.58a20.41,20.41,0,0,0-.52,6.9c0,.77.06,1.54.06,2.27s0,1.33-.05,2.07C20,58.32,19.82,63.06,22,64.94a4.66,4.66,0,0,0,4.06.72l.7-.13V89.06c0,.45,0,.91,0,1.38-.07,2.9-.13,5.63,2.3,7.37a5.65,5.65,0,0,0,4.77.76,4.4,4.4,0,0,0,.73-.32,3.7,3.7,0,0,1,1.56-.52,3.27,3.27,0,0,1,1.63.51,6.6,6.6,0,0,0,.7.31A5.59,5.59,0,0,0,42.84,98c2.63-1.49,2.63-4,2.63-6.83V78.92c0-.38,0-.87.07-1.41.12-1.56.29-3.92-.52-4.62C44.46,72.41,44,72.25,43.63,72.42Z" fill="#003f3b"/><path d="M78.94,41.91a11.52,11.52,0,0,0-1.39-3.23C74,33,67.43,33.1,61.12,33.25c-1.9,0-3.48,0-5,0-3-.06-6.17-.13-8.89,1.16-6.73,3.19-6.6,10.17-6.48,16.91v.18c0,.82,0,1.63,0,2.43,0,1,0,2.09-.08,3.15a42.25,42.25,0,0,0,.11,6.48,4.52,4.52,0,0,0,2.29,3.32,5.59,5.59,0,0,0,4.73.56l1.33-.5V95.3c0,.85,0,1.8-.11,2.73-.17,2.84-.36,6.07.84,8.07a6.29,6.29,0,0,0,7,2.69,4.73,4.73,0,0,0,1-.48,4.17,4.17,0,0,1,2.28-.78,4.74,4.74,0,0,1,2.12.79,4.61,4.61,0,0,0,1.16.53,6.24,6.24,0,0,0,7-3.24c1-2.21.84-5.44.67-8.29-.06-1.06-.12-2-.12-3V67.46l1.12.14c3.23.41,5.36-.39,6.52-2.43.86-1.53.81-3.53.77-5.46,0-.45,0-.87,0-1.27,0-1.48.06-3,.13-4.56C79.69,49.75,79.87,45.55,78.94,41.91Zm-2.56,7.91c0,.89-.08,1.75-.08,2.57v8.87c0,1,.07,2.29-1,3a2,2,0,0,1-2.21.29,3.49,3.49,0,0,1-1.52-3c0-1.61,0-3.28.11-4.9a66.64,66.64,0,0,0-.14-9.49,2.17,2.17,0,0,0-1.63-1.9,1.49,1.49,0,0,0-1.65.89,6.25,6.25,0,0,0-.4,3.17c0,.32,0,.63,0,.92V91.59c0,1.25,0,2.51,0,3.77,0,2.55.1,5.19,0,7.76A2.93,2.93,0,0,1,65.2,106a2.84,2.84,0,0,1-2.29-.74c-1.36-1.34-1.22-4.13-1.11-6.17,0-.48,0-.91,0-1.27V77c0-.35,0-.76.06-1.21.11-2,.27-4.66-1.51-5.12a1.35,1.35,0,0,0-1.27.18c-1.08.88-.9,4-.81,5.64,0,.44,0,.82,0,1.09v22.62c0,2.08-.31,4.75-1.78,5.66a2.08,2.08,0,0,1-1.12.31,3.55,3.55,0,0,1-1.58-.43c-1.8-.92-1.79-2.68-1.78-4.23V50.83c0-.39,0-.82,0-1.27A9.45,9.45,0,0,0,52,46.47a1.57,1.57,0,0,0-1.75-1.24,1.93,1.93,0,0,0-1.63,1.91c-.06,1.65,0,3.33,0,5,0,.81,0,1.63,0,2.44s0,1.56.1,2.43a19.23,19.23,0,0,1-.22,5.86,2.55,2.55,0,0,1-1.64,1.78,2.27,2.27,0,0,1-2.16-.34c-1.52-1.12-1.26-4.58-1.07-7.1,0-.66.1-1.24.1-1.66,0-1-.05-2-.1-3.12-.25-5.63-.56-12.63,5.2-15.31A10.71,10.71,0,0,1,52,36.32l.28,0a29.82,29.82,0,0,1,4.63-.12c1.49,0,2.94,0,4.56,0,4.78-.18,10.73-.42,13.56,4.17C76.69,43,76.52,46.63,76.38,49.82Z" fill="#003f3b"/><rect width="120" height="120" fill="none"/></g></g></svg>