<svg xmlns="http://www.w3.org/2000/svg" width="141.25" height="120" viewBox="0 0 141.25 120"><g id="Layer_2" data-name="Layer 2"><g id="Layer_1-2" data-name="Layer 1"><path d="M56.45,103.5c0-.36,4-6.37,4-6.37L65,94.7l-3.3-6.26,2.67-5.77h7.58l3.28,4.62-3.28,7.59,5,2.87,3.14,5.75-8.13,4.94L63.81,108Z" fill="#dacda5"/><path d="M78.22,43.09c0-.35,4-6.37,4-6.37l4.49-2.42L83.46,28l2.67-5.76h7.58L97,26.88l-3.28,7.6,5,2.87,3.15,5.74L93.71,48l-8.12-.45Z" fill="#dacda5"/><path d="M22.92,66.76c0-.36,4-6.37,4-6.37L31.44,58,28.15,51.7l2.67-5.77H38.4l3.28,4.62L38.4,58.14l5,2.88,3.14,5.74L38.4,71.7l-8.12-.45Z" fill="#dacda5"/><rect width="120" height="120" fill="none"/><path d="M109.39,65.9a8.12,8.12,0,0,0-15.53.18c-.32,1-.32,1.47,0,4.82.07.72.07.72-4.81,3.9L84.09,78,83,76.79a22.34,22.34,0,0,0-5-4c-.51-.28-1.36-.8-1.36-1.07s7.73-22.06,8.07-22.4c.14-.19.7-.07.94,0a20.77,20.77,0,0,0,2.62.41,19.83,19.83,0,0,0,16-6A19.8,19.8,0,0,0,76.44,15.56a25.62,25.62,0,0,0-3.8,4.91c-.47.82-.78,1.22-1.16,1.09-.18-.06-1.34-.47-2.57-.94l-2.35-.88,0-1a11.69,11.69,0,0,0-1-4.23A8.13,8.13,0,1,0,55.32,25.88a7.09,7.09,0,0,0,3.1.43c1.92,0,2.1,0,3.27-.61A9.77,9.77,0,0,0,65,23l.37-.54,2.75,1a26.54,26.54,0,0,1,2.72,1.09c0,.06.14.15-.23,1.57a21.5,21.5,0,0,0,.11,8.26c.48,1.81.39,1.91.33,2S52.83,44.1,52.63,44.1h-.09l0-.08-.94-1.45a19.79,19.79,0,0,0-16.59-9,19,19,0,0,0-6,.91c-.15.05-.92.3-1.13.1-.05,0-4.53-9.12-4.53-9.49,0-.08,0-.17,1-1.24a7.75,7.75,0,0,0,2.12-5.12,6.87,6.87,0,0,0-.24-2.67,8.19,8.19,0,0,0-9.48-5.71A8.61,8.61,0,0,0,11,14.83a8.09,8.09,0,0,0-.16,6.62,8.38,8.38,0,0,0,5,4.62,6.43,6.43,0,0,0,2.75.3l1.85-.06,2.28,4.77c.09.19,2.24,4.7,2.24,4.9s0,.22-1.22,1.1A19.48,19.48,0,0,0,15.2,53.16c0,6.47,2.51,11.59,7.89,16.09L24,70l-1.57,2.8c-1.35,2.43-1.71,2.77-2,2.66a7.42,7.42,0,0,0-1.62-.21,8,8,0,0,0-8.56,6.9,8.09,8.09,0,0,0,11.12,8.66,8.19,8.19,0,0,0,4.62-5,6.43,6.43,0,0,0,.34-2.93,7,7,0,0,0-1.89-4.73c-.81-1-.81-1.11-.81-1.18a39.32,39.32,0,0,1,3.12-5.44l.07-.06.1,0,.44.14,1.15.39a20.47,20.47,0,0,0,11.28.52,24,24,0,0,0,6.06-2.71c.43-.28,1-.61,1.07-.66a.23.23,0,0,1,.23,0c.42.29,6.53,6.69,6.53,7.16,0,.25-.5.84-.61.95a20.7,20.7,0,0,0-4.55,14.11l.15,1.66-.9.25C46.76,93.64,41.15,95,41,95s-.18,0-1-1.14a7.59,7.59,0,0,0-6.17-3.51,7.62,7.62,0,0,0-7.06,3.29,7.94,7.94,0,0,0-1,7.75,8.24,8.24,0,0,0,6.35,5A7.74,7.74,0,0,0,38,105a8.26,8.26,0,0,0,3.34-5.44c.21-1.44.26-1.58,1-1.78,1.56-.42,6.51-1.57,6.79-1.57s.55.52.65.86a18.61,18.61,0,0,0,1,2.16,19.83,19.83,0,0,0,25,9.13,20.12,20.12,0,0,0,11.8-13.78A16.13,16.13,0,0,0,88,90.2a18.29,18.29,0,0,0-1.76-8.51c-.17-.31-.53-1.09-.27-1.3s8.83-5.83,9.29-6.09.72,0,1.45.5a8,8,0,0,0,4.62,1.61A7.65,7.65,0,0,0,107.52,74,7.82,7.82,0,0,0,109.39,65.9Zm-47.47-44a4.1,4.1,0,0,1-3.6,1.4,4,4,0,0,1-2.54-.55,5.07,5.07,0,0,1-2.56-5A5.37,5.37,0,0,1,57,13.3a6.19,6.19,0,0,1,3.57.39,5.15,5.15,0,0,1,2.8,3.83A5.06,5.06,0,0,1,61.92,21.93Zm-41.44,1a5,5,0,0,1-2.18.5,5.19,5.19,0,0,1-4.61-2.88A5,5,0,0,1,14,15.49a5,5,0,0,1,4.55-2.29,5.46,5.46,0,0,1,1.94.51,5,5,0,0,1,2.85,4.38A4.89,4.89,0,0,1,20.48,22.94Zm1.43,64a5.07,5.07,0,0,1-3.6,1.51,4.9,4.9,0,0,1-.77-.06,5.27,5.27,0,0,1-3.89-2.8,5.71,5.71,0,0,1,0-4.48,5.17,5.17,0,0,1,9.11-.32,4,4,0,0,1,.55,2.55A4.11,4.11,0,0,1,21.91,87ZM38.38,98.82a5,5,0,0,1-3.58,4.42,5.25,5.25,0,0,1-1.49.31,5.24,5.24,0,0,1-1.5-.31,5.3,5.3,0,0,1-3.66-4.75A5.23,5.23,0,0,1,30.62,94a5.09,5.09,0,0,1,5-.22A5,5,0,0,1,38.38,98.82ZM99.06,44.13a15.82,15.82,0,0,1-9,2.61H90a15.39,15.39,0,0,1-8.44-2.25c-1.63-1-1.7-1.22-.82-3.07a8.49,8.49,0,0,1,5.1-4.48c.85-.31,1.65-.36,4.45-.31,3,0,3.57.1,4.64.52h0A7.73,7.73,0,0,1,97.44,39a7.7,7.7,0,0,1,2.35,3.67C100,43.44,100,43.51,99.06,44.13ZM84.87,27.84A5.9,5.9,0,0,1,87.3,23.9a5.58,5.58,0,0,1,4.8-.29h0A5,5,0,0,1,95,27.22a5.17,5.17,0,0,1-1.2,4.64A5.08,5.08,0,0,1,90,33.38h-.19A5.11,5.11,0,0,1,86,31.61,4.93,4.93,0,0,1,84.87,27.84ZM74.53,23.42a17.07,17.07,0,0,1,12.92-10.1,22,22,0,0,1,6.74.37A16.92,16.92,0,0,1,105.27,23a14.34,14.34,0,0,1,1.48,7.17,12.45,12.45,0,0,1-.55,4.34,19,19,0,0,1-2.77,5.59l-.85,1-.7-1.37a12.11,12.11,0,0,0-5.17-5.12l-1-.48.68-.87A8,8,0,0,0,97,24.22,7.89,7.89,0,0,0,88.8,20.3,8.14,8.14,0,0,0,81.91,29a7.68,7.68,0,0,0,1.45,3.9l.87,1.28-1.2.63a12.42,12.42,0,0,0-4.87,4.88c-.6,1.16-.84,1.09-.93,1.06-.49-.16-2.2-3-2.74-4.3A15.58,15.58,0,0,1,73.26,30,15.2,15.2,0,0,1,74.53,23.42ZM43.12,68a15.22,15.22,0,0,1-8,2.15c-.38,0-.78,0-1.18,0a14.6,14.6,0,0,1-6.08-1.52C25.78,67.56,25,67,25,66.47a7.55,7.55,0,0,1,.71-1.79,8.69,8.69,0,0,1,5.58-4.57,24.6,24.6,0,0,1,7.27,0h0a7.67,7.67,0,0,1,4,2.31,7.45,7.45,0,0,1,2.2,3.88C44.83,67,44.56,67.14,43.12,68Zm-13-18.07A5,5,0,0,1,32.87,47,5.1,5.1,0,0,1,37,47a4.76,4.76,0,0,1,2.55,2.5,5.11,5.11,0,0,1,0,4.39,5,5,0,0,1-3.29,2.77,4.71,4.71,0,0,1-1.28.21,5.35,5.35,0,0,1-1.59-.31,4.84,4.84,0,0,1-2.94-2.46A5.4,5.4,0,0,1,30.09,49.9ZM47.5,64.51,46.74,63A13.79,13.79,0,0,0,42,58.22c-1.13-.55-1.13-.68-1.13-.78s.52-.83.53-.83a11.21,11.21,0,0,0,1-1.7,5.86,5.86,0,0,0,.51-3.21c0-2.09,0-2.16-.71-3.56a8.13,8.13,0,0,0-5-4.24,8,8,0,0,0-6.32.69,8.28,8.28,0,0,0-4,8.33,7,7,0,0,0,1.43,3.48c.63.89.76,1.08.66,1.28s-.26.15-.39.15a14.14,14.14,0,0,0-4,3A16.65,16.65,0,0,0,23.11,63l-.76,1.43-.79-1a20.57,20.57,0,0,1-2.82-5.71,12.86,12.86,0,0,1-.44-4.62c0-2.75.05-3.19.56-4.74A17.11,17.11,0,0,1,31.41,36.89a21.86,21.86,0,0,1,7,0A16.87,16.87,0,0,1,51.08,48.42c.5,1.55.55,2,.55,4.74a13.15,13.15,0,0,1-.43,4.62,20.07,20.07,0,0,1-2.89,5.77Zm5.23,6.14L49.4,67l.58-.72a27.5,27.5,0,0,0,3.18-5.12A16.6,16.6,0,0,0,54.67,54a19.87,19.87,0,0,0-.73-6.66c-.08-.25-.12-.41,9.11-4.34s9.3-3.83,9.4-3.68.64.92,1.07,1.59a22.09,22.09,0,0,0,7.55,6.72c.4.19.6.36.67.55a.47.47,0,0,1,0,.31l-1,2.75c-.72,2-1.76,4.86-2.89,8-1.52,4.23-2.9,8-3.56,9.84-.23.65-.38,1-.4,1.12l-.27.67-1.37-.28A19.55,19.55,0,0,0,57.77,73.3a11.36,11.36,0,0,1-1.6,1C56.09,74.25,56,74.25,52.73,70.65ZM76.8,104.48a14.37,14.37,0,0,1-8.41,2.29h-.2a12.47,12.47,0,0,1-4.4-.55c-2.57-.78-5.34-2.18-5.34-3.1a9.16,9.16,0,0,1,2-3.85,8.77,8.77,0,0,1,3.66-2.33c.86-.31,1.61-.36,4.46-.32,3.41.06,3.48.06,4.76.68a8.87,8.87,0,0,1,4.74,5.48l.23.85ZM63.2,87.68a5.14,5.14,0,0,1,2.73-3.89,5.42,5.42,0,0,1,4.82.08,4.6,4.6,0,0,1,2.6,4.47,4.48,4.48,0,0,1-1.64,3.84,5.26,5.26,0,0,1-6.91-.07A5.08,5.08,0,0,1,63.2,87.68Zm20.27,9.59c-.21.42-2.1,3.75-2.49,3.75-.08,0-.19,0-.84-1.3a14.82,14.82,0,0,0-4.85-4.83L74,94.25l.79-1a7.07,7.07,0,0,0,1.53-4.87,7,7,0,0,0-1.68-5,8.16,8.16,0,0,0-11-1.61,8.88,8.88,0,0,0-2.95,3.72,6.5,6.5,0,0,0-.44,2.92A7,7,0,0,0,61.8,93.2l.79,1-1.3.64A14.56,14.56,0,0,0,56.5,99.6c-.64,1.27-.87,1.2-1,1.16-.49-.15-2.2-3-2.74-4.26a17.22,17.22,0,0,1,0-12.93,17.43,17.43,0,0,1,9.26-9.16,24.51,24.51,0,0,1,4.76-1.17,22.59,22.59,0,0,1,5.72.49h0a16.7,16.7,0,0,1,11,9.3,14.51,14.51,0,0,1,1.49,7.17A14,14,0,0,1,83.47,97.27ZM106.28,70.6a5,5,0,0,1-4.38,2.82l-.36,0a5.12,5.12,0,0,1-4.64-7,5.4,5.4,0,0,1,3.23-3,4.67,4.67,0,0,1,3.38.12h0a5.1,5.1,0,0,1,2.94,2.94A5,5,0,0,1,106.28,70.6Z" fill="#003f3b"/><path d="M141,81.5a.87.87,0,0,1,0,1.17Z" fill="#212121"/><path d="M141,83.84a1.42,1.42,0,0,1,.17,1.2.51.51,0,0,0-.17,0Z" fill="#525252"/></g></g></svg>