<svg xmlns="http://www.w3.org/2000/svg" width="120" height="120" viewBox="0 0 120 120"><g id="Layer_2" data-name="Layer 2"><g id="Layer_1-2" data-name="Layer 1"><rect width="120" height="120" fill="none"/><path d="M109.39,11.22l0-.11c-.3-.68-1-.73-17.52-.71h-2c-12.68,0-18.33,0-18.89.23-.71.4-.76.59-.78,6.23v5.8l-3.26.08c-2.79.06-2.89.11-4,.65a7,7,0,0,0-3.64,3.55,5,5,0,0,0-.68,3.16,5.09,5.09,0,0,0,.58,3,7.09,7.09,0,0,0,3.55,3.64c1.4.68,1.4.68,4.21.76l3.28.07v5.76c0,5.73.08,6,.83,6.29a64.08,64.08,0,0,0,6.89.2c6.73,0,7.16-.07,7.45-.69.06-.21.18-2,.24-4.4.1-4.26.1-4.34.69-5.22a3.89,3.89,0,0,1,3.63-1.89,3.42,3.42,0,0,1,2.29.59,5.46,5.46,0,0,1,1.37,1.39c.51.8.53,1.12.63,5.15a44,44,0,0,0,.24,4.41c.29.59.72.66,7.46.66,7,0,7.16,0,7.51-.83.17-.57.2-7.65.2-18.88S109.57,11.8,109.39,11.22Z" fill="#dacda5"/><path d="M97,13.55c3,0,7.07,0,9.37.08.08,3.8.08,12.06.08,16.49,0,4.11,0,12.68-.08,16.53-1.24,0-3,0-4.48,0-1.36,0-3.17,0-4.49,0,0-.55,0-1.21-.06-2-.11-4.31-.13-5.21-1.1-6.72A8.44,8.44,0,0,0,94,35.62l0,0,0,0a6.5,6.5,0,0,0-4-1.09,7.07,7.07,0,0,0-6.26,3.3c-1.09,1.63-1.11,2.34-1.21,6.88,0,.75-.05,1.43-.07,2-1.31,0-3.11,0-4.47,0-2.16,0-3.6,0-4.55,0,0-1,0-2.36,0-3.31V34.49l-3.09-.06L67,34.36c-2.12-.06-2.12-.06-2.9-.43A4,4,0,0,1,62,31.76a3.6,3.6,0,0,1-.25-.57c0-.14,0-.83,0-1.09s0-.91,0-1,.24-.54.33-.73a3.93,3.93,0,0,1,2.15-2.09c.65-.3.65-.3,2.79-.35l3.26-.09,3.07-.08V16.87c0-1,0-2.26,0-3.23,3.28-.07,10.21-.08,16.49-.09H97m0-3.15H89.84c-12.68,0-18.33,0-18.89.23-.71.4-.76.59-.78,6.23v5.8l-3.26.08c-2.79.06-2.89.11-4,.65a7,7,0,0,0-3.64,3.55,5,5,0,0,0-.68,3.16,5.09,5.09,0,0,0,.58,3,7.09,7.09,0,0,0,3.55,3.64c1.4.68,1.4.68,4.21.76l3.28.07v5.76c0,5.73.08,6,.83,6.29a64.08,64.08,0,0,0,6.89.2c6.73,0,7.16-.07,7.45-.69.06-.21.18-2,.24-4.4.1-4.26.1-4.34.69-5.22a3.89,3.89,0,0,1,3.63-1.89,3.42,3.42,0,0,1,2.29.59,5.46,5.46,0,0,1,1.37,1.39c.51.8.53,1.12.63,5.15a44,44,0,0,0,.24,4.41c.29.59.72.66,7.46.66,7,0,7.16,0,7.51-.83.17-.57.2-7.65.2-18.88s0-18.32-.21-18.9l0-.11c-.27-.6-.81-.71-12.35-.71Z" fill="#003f3b"/><path d="M85.45,70.42l-.13-.06c-.17-.07-1.15-.19-5.67-.19H73.9l-.06-3.29c-.08-2.8-.08-2.8-.76-4.21a7.14,7.14,0,0,0-3.64-3.54,5.09,5.09,0,0,0-3-.58,5,5,0,0,0-3.17.68,7,7,0,0,0-3.54,3.64c-.54,1.15-.59,1.25-.65,4L59,70.17H49.83V64.39c0-5.53-.1-6-.68-6.29-.22-.06-2-.18-4.39-.24-4-.1-4.35-.12-5.15-.63a5.39,5.39,0,0,1-1.38-1.36,3.32,3.32,0,0,1-.6-2.31,3.39,3.39,0,0,1,.59-2.32,5.59,5.59,0,0,1,1.39-1.36c.8-.51,1.12-.53,5.15-.63A42.38,42.38,0,0,0,49.17,49c.59-.28.66-.71.66-7.46,0-7,0-7.15-.83-7.5-.18-.08-1.16-.2-5.68-.2H37.58l-.07-3.28c-.07-2.81-.07-2.81-.76-4.21a7.12,7.12,0,0,0-6.22-4.15,10.84,10.84,0,0,0-2.16.1,9.28,9.28,0,0,0-3.64,2.17,9.92,9.92,0,0,0-1.34,2.06c-.54,1.16-.59,1.26-.65,4l-.08,3.28H16.91c-4.51,0-5.49.12-5.67.2l-.22.08c-.62.2-.62,3.81-.62,32V71.7c0,22.92,0,36.34.21,37.1a.61.61,0,0,1,.07.18c.2.62,3.81.62,32,.62H53.89c28.18,0,31.79,0,32-.62,0-.07.05-.14.08-.22.17-.57.2-7.65.2-18.9v-2C86.16,71.37,86.14,70.71,85.45,70.42ZM13.51,36.94h5.77c4.31,0,5.47-.1,5.7-.2.66-.3.83-.54.83-4.32A28.22,28.22,0,0,1,26,28.19a4.88,4.88,0,0,1,2.64-2.73,5.07,5.07,0,0,1,3.8.49,5,5,0,0,1,1.32,1.36c.52.81.53,1.19.62,4.85a37,37,0,0,0,.25,4.12c.26.56.75.66,6.29.66h5.77v9.15l-3.56.09c-3.1.06-3.14.08-4.33.65a7.07,7.07,0,0,0-3.64,3.54,5.06,5.06,0,0,0-.68,3.17,5.08,5.08,0,0,0,.59,3,7.1,7.1,0,0,0,3.54,3.64l1.41.68,6.67.14v9.16H13.51ZM47.39,94.43c-.56.27-.66.76-.66,6.29v5.77H13.51V73.27H46.73V79c0,5.54.1,6,.69,6.3.22.06,2,.17,4.39.24,4,.09,4.34.11,5.14.63a5.27,5.27,0,0,1,1.39,1.36,3.31,3.31,0,0,1,.6,2.31,3.35,3.35,0,0,1-.6,2.32A5.27,5.27,0,0,1,57,93.56c-.8.51-1.12.53-5.14.63C49.39,94.25,47.64,94.36,47.39,94.43Zm35.67,12.06H49.83V97.34l6.68-.14,1.4-.69a7.1,7.1,0,0,0,3.55-3.63,5.12,5.12,0,0,0,.58-3,5,5,0,0,0-.68-3.16,7.09,7.09,0,0,0-3.64-3.55c-1.18-.56-1.23-.58-4.31-.64l-3.58-.09V73.27h5.78c4.3,0,5.47-.11,5.69-.2.67-.3.84-.54.84-4.32a28.12,28.12,0,0,1,.23-4.23A4.87,4.87,0,0,1,65,61.78a5.07,5.07,0,0,1,3.8.5,4.86,4.86,0,0,1,1.32,1.36c.51.81.52,1.19.62,4.84A37.09,37.09,0,0,0,71,72.61c.26.56.75.66,6.28.66h5.78Z" fill="#003f3b"/></g></g></svg>