<svg xmlns="http://www.w3.org/2000/svg" width="120" height="120" viewBox="0 0 120 120"><g id="Layer_2" data-name="Layer 2"><g id="Layer_1-2" data-name="Layer 1"><polygon points="26.75 50.45 15.82 36.78 12.88 25.64 18.77 15.65 28.86 13.24 38.74 19.02 41.47 29.53 36.53 40.57 26.75 50.45" fill="#dacda5"/><polygon points="92.31 93.53 81.37 79.86 78.43 68.72 84.32 58.73 94.41 56.31 104.29 62.09 107.02 72.61 102.08 83.64 92.31 93.53" fill="#dacda5"/><rect width="120" height="120" fill="none"/><path d="M95.85,105.64a3.11,3.11,0,0,0-1.56-3.13,2.94,2.94,0,0,0-3.33.19,4,4,0,0,1-2.77,1H23.64a9.36,9.36,0,0,1,.69-18.7H35.76c6.53,0,13.29,0,19.93,0A12.15,12.15,0,0,0,65,80.38a12.35,12.35,0,0,0-9.56-20.17c-6.7,0-13.41,0-20.11,0H31.6a3.37,3.37,0,0,1-2.34-.81,3.07,3.07,0,0,0-4.27.23,3.1,3.1,0,0,0,4.32,4.45,2.9,2.9,0,0,1,1.93-.78h8.32c5.36,0,10.89,0,16.34.05A9.24,9.24,0,0,1,62.1,79a9.35,9.35,0,0,1-6.8,2.83q-12.09,0-24.18,0H24.71a17.42,17.42,0,0,0-2.59.17A12.55,12.55,0,0,0,11.85,92.48l-.07.34v.07a3.49,3.49,0,0,1,0,.56,4.51,4.51,0,0,0,0,.52,5.1,5.1,0,0,1-.09,1.52v.58c.08.4.13.78.17,1.15a6.62,6.62,0,0,0,.24,1.28,12.85,12.85,0,0,0,12.08,8.55H88.11a3.34,3.34,0,0,1,2.34.66,3.58,3.58,0,0,0,1.49.6H93a2.17,2.17,0,0,1,.75-.18A3.16,3.16,0,0,0,95.85,105.64Z" fill="#003f3b"/><path d="M11.83,29l0,.32a14.54,14.54,0,0,0,1,4.08c3.07,8,8.85,14.1,13.53,18.48a1.35,1.35,0,0,0,1.94-.1c5.62-5.24,9.48-10.15,12.15-15.47,2.12-4.22,2.81-7.92,2.17-11.62A15.77,15.77,0,0,0,28,11.69h-.58A15.66,15.66,0,0,0,12.1,23.74a4.89,4.89,0,0,0-.09.53,6.42,6.42,0,0,1-.32,1.38,3.19,3.19,0,0,1,0,1.68v.59a3,3,0,0,1,.1,1Zm5.55-9.25a12,12,0,0,1,9.31-5h0a13,13,0,0,1,10.38,4.93,12.29,12.29,0,0,1,2.29,10.6A30.77,30.77,0,0,1,34,40.91a55.7,55.7,0,0,1-5.1,6,2.15,2.15,0,0,1-1.58.8h0A2.07,2.07,0,0,1,25.76,47c-3.42-3.61-7.25-8.07-9.65-13.76C14,28.24,14.41,23.69,17.38,19.75Z" fill="#003f3b"/><path d="M77.15,71a16.77,16.77,0,0,0,1.15,6.09c3.06,8,8.85,14.08,13.54,18.47a1.34,1.34,0,0,0,1.94-.09c5.69-5.31,9.57-10.28,12.22-15.64,2-4.11,2.71-7.73,2.11-11.37h0A15.66,15.66,0,0,0,92.8,55.31c-.41,0-.83,0-1.24,0A15.78,15.78,0,0,0,77.15,71Zm16-12.51a12.2,12.2,0,0,1,8.71,4,12.47,12.47,0,0,1,3.3,9.21,20.19,20.19,0,0,1-3.2,9,53,53,0,0,1-7.67,9.87,2.07,2.07,0,0,1-1.52.81h0a2,2,0,0,1-1.47-.69C87.23,86.42,83.18,81.58,81,75.34a12,12,0,0,1-.74-4.27,12.73,12.73,0,0,1,3.87-9.14A12.4,12.4,0,0,1,93.17,58.45Z" fill="#003f3b"/><path d="M27.27,24.16a3.1,3.1,0,0,0-2.2,5.29,3.05,3.05,0,0,0,2.2.92h0a3.11,3.11,0,0,0,3.11-3.07,3.16,3.16,0,0,0-.91-2.23,3.09,3.09,0,0,0-2.2-.91Z" fill="#003f3b"/><path d="M92.75,67.8a3.14,3.14,0,0,0-3.13,3.14A3.14,3.14,0,0,0,92.71,74h0a3.1,3.1,0,0,0,2.21-.92,3.07,3.07,0,0,0,.91-2.21h0a3.15,3.15,0,0,0-3.09-3.09Z" fill="#003f3b"/></g></g></svg>