<svg xmlns="http://www.w3.org/2000/svg" width="120" height="120" viewBox="0 0 120 120"><g id="Layer_2" data-name="Layer 2"><g id="Layer_1-2" data-name="Layer 1"><path d="M24.28,76.81s-11,5.64,1.76,8.36l.49,2.06s-5.61,7.07,3.29,6.1c0,0-6.57,8.92,2.34,7.23,0,0-1.12,6.76,6,4.51,0,0,1.41,5.66,6.95,2.12l5.16-4.28s2.72-7.7-2.07-7.32c0,0,1.6-7.51-2.77-6.67,0,0-3.8-6.66-6.8-3.75,0,0-5.59-5.54-7.72-1l-2.51.94Z" fill="#dacda5"/><path d="M95.36,76.86s11,5.63-1.76,8.35l-.49,2.06s5.6,7.07-3.29,6.11c0,0,6.57,8.91-2.35,7.22,0,0,1.13,6.76-6,4.51,0,0-1.41,5.66-7,2.13L69.36,103s-2.72-7.7,2.06-7.32c0,0-1.59-7.51,2.77-6.67,0,0,3.8-6.66,6.81-3.75,0,0,5.59-5.54,7.72-1l2.51.94Z" fill="#dacda5"/><path d="M47.85,15.69S45.53,28,59.45,27.59l.54-5s11.17,5,12.23-10.93c0,0-11.68.82-13.15,7.11C59.07,18.74,52.59,13.42,47.85,15.69Z" fill="#dacda5"/><rect width="120" height="120" fill="none"/><path d="M100.7,83.93a6.13,6.13,0,0,0,1.07-3,5.89,5.89,0,0,0-1.3-3.28,5.54,5.54,0,0,0-3.13-1.76c-.18,0-.31,0-.38-.09s-.09-.38,0-1.07a40.21,40.21,0,0,0-1-15.64,36.81,36.81,0,0,0-6.94-13.5A37.6,37.6,0,0,0,63.28,31.79l-1.76-.14V24.79h1.76A9.26,9.26,0,0,0,70.4,22c2.16-2.15,3-4.49,3-8.07,0-1.68-.11-2.69-.66-3.24S71.26,10,69.65,10h-.21a15.8,15.8,0,0,0-3.37.29h0A10.37,10.37,0,0,0,59,17.09a.29.29,0,0,1-.16.21c-.15,0-.36-.11-.95-.64a10.59,10.59,0,0,0-4.3-2.12,20.4,20.4,0,0,0-3.17-.22c-3.38,0-3.85.46-3.85,3.73a11.51,11.51,0,0,0,1.09,5.55,9.5,9.5,0,0,0,3.67,4,10.66,10.66,0,0,0,5.5,1.46h1.66v2.63h-.84a40.22,40.22,0,0,0-6.81,1.08,37.24,37.24,0,0,0-27.6,29.37A40.19,40.19,0,0,0,23,74.78c.09.65.11.88,0,1s-.19.09-.38.09a5.54,5.54,0,0,0-3.13,1.76,6,6,0,0,0-1.3,3.28,6.16,6.16,0,0,0,1.07,3,5.8,5.8,0,0,0,3.9,2.21l1.95.44-.56.59a5.4,5.4,0,0,0-1,5.34A5.47,5.47,0,0,0,25.86,95c.26.1.6.27.48.61a5.7,5.7,0,0,0,.17,4.26,5.63,5.63,0,0,0,3.85,2.53c.23,0,.38.24.49.76a5,5,0,0,0,2.29,3.35,4.68,4.68,0,0,0,3.79.55l.91-.29,0,0,.53.84a4.89,4.89,0,0,0,6.19,1.9A22,22,0,0,0,47.37,107l2.18-2.15h0l1,.3c5,1.51,13.91,1.51,19,0l1-.28v0l2.25,2.2c2.57,2.54,3.38,3,5.12,2.78a5.65,5.65,0,0,0,1.8-.5,6,6,0,0,0,2.23-2.24c.22-.47.28-.45,1.17-.18a4.62,4.62,0,0,0,3.75-.5,5,5,0,0,0,2.35-3.38c.06-.32.19-.76.49-.76a5.38,5.38,0,0,0,4-3,7.46,7.46,0,0,0,0-3.81.34.34,0,0,1,0-.29c0-.09.14-.16.32-.22a4.9,4.9,0,0,0,1.43-7.86l-.56-.59h.08l1.87-.43A5.8,5.8,0,0,0,100.7,83.93Zm-39.12-65a6.86,6.86,0,0,1,5-5.77,11.45,11.45,0,0,1,2.44-.25l1.55,0v1.37a7.86,7.86,0,0,1-2.72,6.25,8.63,8.63,0,0,1-3.39,1.45c-.15,0-.25,0-.28-.08s.17-.36,1-1.13c1-.92,1.19-1.23,1.19-1.72A1.32,1.32,0,0,0,65,17.65c-.49,0-.88.24-1.92,1.16A14.37,14.37,0,0,1,61.62,20l0,0A3.41,3.41,0,0,1,61.58,18.91ZM57,22.73c-1.24-1.2-1.58-1.43-2.08-1.43a1.33,1.33,0,0,0-1.3,1.42c0,.46.3.89,1.41,2l1.5,1.58-1.11-.16a7,7,0,0,1-3.87-2A7.39,7.39,0,0,1,49.4,18.5V17.12l2,.08a6.83,6.83,0,0,1,3,.59,6.92,6.92,0,0,1,4,5.34l.09,1.13ZM25.39,83.62s-.07,0-.14,0a11.4,11.4,0,0,1-3.12-.86,2.27,2.27,0,0,1-1-2.23,2.32,2.32,0,0,1,2-1.84h.68v0l.8,2.37a18.27,18.27,0,0,1,.74,2.5Zm1.76,8.76a2.25,2.25,0,0,1-1.07-2.26A19.42,19.42,0,0,1,29,86.76c3.93-4,4.53-4.38,5.84-3.61a1.89,1.89,0,0,1,.72,2.62,46.11,46.11,0,0,1-3.39,3.59c-2.5,2.47-3.41,3.27-4.18,3.27A1.84,1.84,0,0,1,27.15,92.38Zm3.68,7.13a1.91,1.91,0,0,1-1.94-2c0-.85,0-.85,5.15-6,2.89-2.91,5.4-5.35,5.71-5.54a1.56,1.56,0,0,1,1.9-.08,1.74,1.74,0,0,1,1,1.84c0,.72-.16.89-5.55,6.28S31.56,99.51,30.83,99.51Zm5.67,4.63a1.92,1.92,0,0,1-.87.21,1.94,1.94,0,0,1-1.3-.51,1.91,1.91,0,0,1-.55-2.14A137.25,137.25,0,0,1,44.23,91a1.89,1.89,0,0,1,2.29-.3h0a2,2,0,0,1,.8,2.58C47,93.94,37.18,103.77,36.5,104.14Zm10.27-.46-3.52,3.51-.88-.12a1.85,1.85,0,0,1-1.76-2c0-.81.12-1,3.2-4.06,2.73-2.78,3.88-3.73,4.52-3.77a3.61,3.61,0,0,1,.84.3h0a2,2,0,0,1,1.1,2C50.28,100.09,49.82,100.63,46.77,103.68Zm22.14-8.26a4.76,4.76,0,0,0-2,3.06A4.64,4.64,0,0,0,67.7,102l0,.07c.14.19.23.32.18.44s-.6.29-2.28.57l-.26.05a34.59,34.59,0,0,1-5.15.33,32.64,32.64,0,0,1-7.9-.76c-.14,0-.22-.12-.24-.22-.05-.3.47-.84,1.65-1.7a24.05,24.05,0,0,0,7.49-8.87,27.51,27.51,0,0,0,2.44-8.3c.49-3,.7-3.68,1.26-4.3.81-.91,1.66-1,3.51-.42a20.66,20.66,0,0,1,6,3.64l1.66,1.32-.43.47A5.54,5.54,0,0,0,74.5,87c0,.48-.11.57-.85.69a4.72,4.72,0,0,0-4,5.11c0,.59.13,1.3.17,1.52S69.63,95,68.91,95.42Zm8.72,11.65-.88.12h0l-3.5-3.5c-3-3-3.51-3.6-3.51-4.15a2,2,0,0,1,1.08-1.94c.76-.37.79-.38,1.59,0h0A34,34,0,0,1,76.21,101c3.06,3.1,3.18,3.25,3.18,4.06A1.85,1.85,0,0,1,77.63,107.07Zm8-3.23a1.94,1.94,0,0,1-1.3.51,1.92,1.92,0,0,1-.87-.21c-.68-.37-10.5-10.2-10.82-10.85a1.94,1.94,0,0,1,.09-1.88,2,2,0,0,1,1.71-1,2.88,2.88,0,0,1,1.3.58C77.1,92,86,101.07,86.22,101.7A1.91,1.91,0,0,1,85.67,103.84Zm3.5-4.33c-.72,0-1-.26-6.28-5.54s-5.55-5.56-5.55-6.28a1.73,1.73,0,0,1,1-1.82,1.58,1.58,0,0,1,1.8,0c.29.15,2.77,2.53,5.77,5.54,5.23,5.27,5.23,5.27,5.23,6.12A1.92,1.92,0,0,1,89.17,99.51Zm3.68-7.13a1.87,1.87,0,0,1-.82.25c-.78,0-1.68-.8-4.18-3.27-3.12-3.08-3.67-3.76-3.67-4.53a2.14,2.14,0,0,1,2-2,2.88,2.88,0,0,1,1.3.58c1.33,1,6.26,6.12,6.42,6.73A2.25,2.25,0,0,1,92.85,92.38ZM94,74.9c-.42,2.36-2,7.63-2.47,8.16-.12.13-1.42-1.13-1.47-1.18-2-1.85-3.52-2.29-5.56-1.58a5.15,5.15,0,0,0-2.73,2.47c-.06.24-.13.37-.23.42a.38.38,0,0,1-.28,0,9.39,9.39,0,0,0-1.1-.31l-.18,0a5.79,5.79,0,0,1-2.56-1.54c-5-4.19-9.12-6.08-11.88-5.46-2.48.57-3.74,2.12-4.34,5.38C61,82.35,60.73,84,60.53,85a23.06,23.06,0,0,1-2.44,6.87,24,24,0,0,1-4.1,5l-1,.84,0,0-.53-.9A4.4,4.4,0,0,0,51,95.35c-.8-.5-1-.71-.86-1a4.92,4.92,0,0,0-3.68-6.63c-.77-.11-.91-.18-.91-.69a5.47,5.47,0,0,0-1.67-3.09,4.81,4.81,0,0,0-3.85-1,9.2,9.2,0,0,0-1.28.33.34.34,0,0,1-.28,0c-.1,0-.17-.18-.23-.42a5.16,5.16,0,0,0-2.72-2.47c-2-.71-3.61-.27-5.57,1.58a8.33,8.33,0,0,1-1.44,1.2h0A44.35,44.35,0,0,1,26.66,78a35.58,35.58,0,0,1,.08-18.24,36.35,36.35,0,0,1,3.42-8.08,3.4,3.4,0,0,0,.18-.3c.49-.84.76-1.3,1.13-1.35h.06c.44,0,1,.58,2.2,1.78l.34.33A12,12,0,0,1,36.91,56l1,2v6.37c0,5.83.06,6.54.47,8.49.59,2.91,1.33,5.21,1.8,5.6a1.29,1.29,0,0,0,1.79-.08c.54-.49.55-1,0-2.61-1.12-3.56-1.25-4.76-1.27-11.67,0-6.11,0-6.53-.43-7.51a18.3,18.3,0,0,0-5.71-7.9,9.72,9.72,0,0,1-1.38-1.3c0-.34,4.11-4.35,5.45-5.39A36,36,0,0,1,49,36.31c.09,0,2.09-.71,2.33-.71h0c.18.21,1.45,6.84,2.14,11,1.29,7.73,2.13,10.07,4.12,11.38,1.81,1.19,3.14,1.07,6.44-.59,2.31-1.16,2.59-1.26,3.77-1.26,1.75,0,2.48.52,4.61,3.27s3.41,3.83,5.4,4.81A17.94,17.94,0,0,0,84.47,66c2.61.27,4.48.1,5-.45a1.41,1.41,0,0,0,0-1.86c-.33-.4-.45-.45-1.78-.39h-.43a24.45,24.45,0,0,1-6-.79c-3-.92-4.66-2.16-6.8-5.07s-3.71-4-6.12-4.22c-1.65-.12-3,.28-5.59,1.63-2.22,1.17-2.88,1.28-3.68.64-1.17-.92-1.59-2.29-2.77-9.19-.51-3-1.17-6.59-1.48-8.17a21.43,21.43,0,0,1-.5-3.14c.31-.29,2.71-.42,6.42-.37a27.68,27.68,0,0,1,6,.49A34.7,34.7,0,0,1,93.94,62.67,39.46,39.46,0,0,1,94,74.9Zm3.83,7.88a11.4,11.4,0,0,1-3.12.86c-.07,0-.12,0-.14,0h0a16.66,16.66,0,0,1,.73-2.5l.81-2.4h.68a1.81,1.81,0,0,1,1.26.56,2.3,2.3,0,0,1,.75,1.89A2.13,2.13,0,0,1,97.87,82.78Z" fill="#003f3b"/></g></g></svg>