<svg width="16" height="17" viewBox="0 0 16 17" fill="none" xmlns="http://www.w3.org/2000/svg">
<path d="M0 1.71671C0 1.16151 0.447715 0.711426 1 0.711426H3.15287C3.64171 0.711426 4.0589 1.06671 4.13927 1.55144L4.87858 6.01074C4.95075 6.44606 4.73206 6.8778 4.3394 7.07516L2.79126 7.85332C3.90756 10.6419 6.12168 12.8677 8.89563 13.9899L9.6697 12.4336C9.86603 12.0389 10.2955 11.819 10.7285 11.8916L15.1644 12.6348C15.6466 12.7156 16 13.135 16 13.6264V15.7907C16 16.3459 15.5523 16.7959 15 16.7959H13C5.8203 16.7959 0 10.9449 0 3.72727V1.71671Z" fill="#DACDA5"/>
</svg>
